<svg width="50" height="50" viewBox="0 0 24 24" fill="none" xmlns="http://www.w3.org/2000/svg">
<path fill-rule="evenodd" clip-rule="evenodd" d="M12 2.25C6.61704 2.25 2.25 6.61704 2.25 12C2.25 17.383 6.61704 21.75 12 21.75C17.383 21.75 21.75 17.383 21.75 12C21.75 6.61704 17.383 2.25 12 2.25ZM3.75 12C3.75 7.44546 7.44546 3.75 12 3.75C16.5545 3.75 20.25 7.44546 20.25 12C20.25 16.5545 16.5545 20.25 12 20.25C7.44546 20.25 3.75 16.5545 3.75 12ZM8.65693 11.4234L12.833 7.9486C12.9425 7.85753 13.0757 7.79953 13.217 7.78138C13.3583 7.76323 13.5018 7.78569 13.6308 7.84612C13.7598 7.90655 13.8689 8.00246 13.9453 8.12263C14.0218 8.2428 14.0624 8.38226 14.0626 8.52469V15.4753C14.0624 15.6178 14.0218 15.7572 13.9453 15.8774C13.8689 15.9975 13.7598 16.0935 13.6308 16.1539C13.5018 16.2143 13.3583 16.2368 13.217 16.2186C13.0757 16.2005 12.9425 16.1425 12.833 16.0514L8.65693 12.5766C8.57233 12.5062 8.50426 12.418 8.45754 12.3184C8.41082 12.2188 8.3866 12.1101 8.3866 12C8.3866 11.89 8.41082 11.7812 8.45754 11.6816C8.50426 11.582 8.57233 11.4938 8.65693 11.4234Z" fill="#876203"/>
</svg>
