<svg width="35" height="35" viewBox="0 0 20 20" fill="none" xmlns="http://www.w3.org/2000/svg">
<path d="M16 6.01562V4H4V6.01562H16ZM16 9.01562V7H4V9.01562H16ZM16 12.0156V10H4V12.0156H16ZM18.0156 0.015625C18.5469 0.015625 19 0.21875 19.375 0.625C19.7812 1 19.9844 1.45312 19.9844 1.98438V19.9844L16 16H1.98438C1.45312 16 0.984375 15.7969 0.578125 15.3906C0.203125 14.9844 0.015625 14.5156 0.015625 13.9844V1.98438C0.015625 1.45312 0.203125 1 0.578125 0.625C0.984375 0.21875 1.45312 0.015625 1.98438 0.015625H18.0156Z" fill="#C1982D"/>
</svg>
