<svg width="32" height="32" viewBox="0 0 32 32" fill="none" xmlns="http://www.w3.org/2000/svg">
<path fill-rule="evenodd" clip-rule="evenodd" d="M9.85097 10.3558C10.7765 9.47895 12.2376 9.51844 13.1145 10.444L21.425 19.2162C22.3018 20.1418 22.2623 21.6029 21.3368 22.4797C20.4113 23.3565 18.9501 23.3171 18.0733 22.3915L9.76277 13.6193C8.88593 12.6937 8.92542 11.2326 9.85097 10.3558Z" fill="url(#paint0_linear)"/>
<path fill-rule="evenodd" clip-rule="evenodd" d="M29.9805 2.88292C29.9047 2.60299 29.6075 2.44598 29.3336 2.54121L24.922 4.07492C24.5092 4.21842 24.4662 4.78516 24.8526 4.98929L25.5786 5.37283C25.5771 5.37563 25.5755 5.37844 25.574 5.38126L17.7251 19.6938C17.4678 20.2804 16.6873 20.2682 16.1991 20.2606C16.1477 20.2598 16.0996 20.259 16.0557 20.259C16.2865 20.4899 16.5174 20.7415 16.7482 20.9932C16.9791 21.2448 17.2099 21.4964 17.4408 21.7272C17.5699 21.8564 17.6822 21.9784 17.7877 22.093C18.0595 22.3881 18.2862 22.6344 18.6392 22.8279C19.7571 23.441 21.1603 23.0317 21.7733 21.9138L29.6222 7.60124C29.6353 7.5773 29.648 7.55323 29.6602 7.52904L30.4838 7.96417C30.8702 8.1683 31.3142 7.81337 31.2 7.39151L29.9805 2.88292Z" fill="url(#paint1_linear)"/>
<path fill-rule="evenodd" clip-rule="evenodd" d="M12.4944 9.97872C13.2754 10.3804 14.6705 12.0316 15.1322 12.5857C14.6705 12.0316 13.7471 12.4933 13.4915 13.0874L5.18096 29.2468C4.59787 30.3806 3.20607 30.827 2.07228 30.2439C0.938491 29.6608 0.492063 28.269 1.07515 27.1352L9.38569 10.9758C9.96878 9.84206 11.3606 9.39563 12.4944 9.97872Z" fill="url(#paint2_linear)"/>
<defs>
<linearGradient id="paint0_linear" x1="9.13013" y1="9.72314" x2="22.7677" y2="10.4903" gradientUnits="userSpaceOnUse">
<stop stop-color="#9D7A1F"/>
<stop offset="1" stop-color="#C1982D"/>
</linearGradient>
<linearGradient id="paint1_linear" x1="16.0557" y1="2.51331" x2="32.0722" y2="3.2002" gradientUnits="userSpaceOnUse">
<stop stop-color="#CFB379"/>
<stop offset="1" stop-color="#C1982D"/>
</linearGradient>
<linearGradient id="paint2_linear" x1="0.819092" y1="9.72266" x2="15.9417" y2="10.3296" gradientUnits="userSpaceOnUse">
<stop stop-color="#CFB379"/>
<stop offset="1" stop-color="#C1982D"/>
</linearGradient>
</defs>
</svg>
